# xmcd
#
# Track frame offsets:
#	150
#	3230
#	27455
#	50867
#	73320
#	85632
#	106727
#	132227
#	167937
#
# Disc length: 3501 seconds
#
# Revision: 0
# Processed by: cddbd v1.5.1PL0 Copyright (c) Steve Scherf et al.
# Submitted via: dBpowerAMP V4.0
#
DISCID=760dab09
DTITLE=김장훈 - Live Concert in Wonderland
DYEAR=2003
DGENRE=Ballad
TTITLE0=광대
TTITLE1=난 남자다
TTITLE2=사노라면
TTITLE3=파랑새
TTITLE4=이별이야기
TTITLE5=얼음무지개
TTITLE6=세상이 그대를 속일지라도
TTITLE7=나와 같다면
TTITLE8=노래만 불렀지
EXTD=
EXTT0=
EXTT1=
EXTT2=
EXTT3=
EXTT4=
EXTT5=
EXTT6=
EXTT7=
EXTT8=
PLAYORDER=
